# AST/ASF file generated using VICON BodyLanguage
# -----------------------------------------------
:version 1.10
:name VICON
:units
  mass 1.0
  length 0.45
  angle deg
:documentation
   .ast/.asf automatically generated from VICON data using
   VICON BodyBuilder and BodyLanguage model FoxedUp or BRILLIANT.MOD
:root
   order TX TY TZ RX RY RZ
   axis XYZ
   position 0 0 0  
   orientation 0 0 0 
:bonedata
  begin
     id 1 
     name lhipjoint
     direction 0.643824 -0.71708 0.266994 
     length 2.52133 
     axis 0 0 0  XYZ
  end
  begin
     id 2 
     name lfemur
     direction 0.34202 -0.939693 0  
     length 7.51824  
     axis 0 0 20  XYZ
    dof rx ry rz
    limits (-160.0 20.0)
           (-70.0 70.0)
           (-60.0 70.0)
  end
  begin
     id 3 
     name ltibia
     direction 0.34202 -0.939693 0   
     length 7.3685   
     axis 0 0 20   XYZ
    dof rx
    limits (-10.0 170.0)
  end
  begin
     id 4 
     name lfoot
     direction 0.105419 -0.289636 0.951314   
     length 2.20972   
     axis -90 7.62852e-016 20   XYZ
    dof rx rz
    limits (-45.0 90.0)
           (-70.0 20.0)
  end
  begin
     id 5 
     name ltoes
     direction 1.53549e-011 -4.21833e-011 1   
     length 1.10139   
     axis -90 7.62852e-016 20   XYZ
    dof rx
    limits (-90.0 20.0)
  end
  begin
     id 6 
     name rhipjoint
     direction -0.608823 -0.743445 0.276811   
     length 2.43192  
     axis 0 0 0  XYZ 
  end
  begin
     id 7 
     name rfemur
     direction -0.34202 -0.939693 0   
     length 7.69715   
     axis 0 0 -20   XYZ
    dof rx ry rz
    limits (-160.0 20.0)
           (-70.0 70.0)
           (-70.0 60.0)
  end
  begin
     id 8 
     name rtibia
     direction -0.34202 -0.939693 0   
     length 7.44924   
     axis 0 0 -20   XYZ
    dof rx
    limits (-10.0 170.0)
 end
 begin
     id 9 
     name rfoot
     direction -0.103614 -0.284677 0.953007   
     length 2.22623  
     axis -90 -7.62852e-016 -20   XYZ
    dof rx rz
    limits (-45.0 90.0)
           (-20.0 70.0)
  end
  begin
     id 10 
     name rtoes
     direction -1.53537e-011 -4.22026e-011 1   
     length 1.11   
     axis -90 -7.62852e-016 -20   XYZ
    dof rx
    limits (-90.0 20.0)
  end
  begin
     id 11 
     name lowerback
     direction -0.0101212 0.99662 -0.0815298   
     length 2.08277   
     axis 0 0 0   XYZ
    dof rx ry rz
    limits (-20.0 45.0)
           (-30.0 30.0)
           (-30.0 30.0)
  end
  begin
     id 12 
     name upperback
     direction 0.024314 0.999591 -0.0150645   
     length 2.08524   
     axis 0 0 0   XYZ
    dof rx ry rz
    limits (-20.0 45.0)
           (-30.0 30.0)
           (-30.0 30.0)
  end
  begin
     id 13 
     name thorax
     direction 0.0285959 0.999323 0.0231357   
     length 2.09645   
     axis 0 0 0   XYZ
    dof rx ry rz
    limits (-20.0 45.0)
           (-30.0 30.0)
           (-30.0 30.0)
  end
  begin
     id 14 
     name lowerneck
     direction -0.065512 0.979301 0.191515   
     length 1.63798   
     axis 0 0 0   XYZ
    dof rx ry rz
    limits (-20.0 45.0)
           (-30.0 30.0)
           (-30.0 30.0)
  end
  begin
     id 15 
     name upperneck
     direction 0.0498479 0.98191 -0.182667   
     length 1.68731   
     axis 0 0 0   XYZ
    dof rx ry rz
    limits (-20.0 45.0)
           (-30.0 30.0)
           (-30.0 30.0)
  end
  begin
     id 16
     name head
     direction 0.0230358 0.996257 -0.0833175  
     length 1.69785  
     axis 0 0 0   XYZ
    dof rx ry rz
    limits (-20.0 45.0)
           (-30.0 30.0)
           (-30.0 30.0)
  end
  begin
     id 17 
     name lclavicle
     direction 0.967963 0.201165 -0.150269  
     length 3.63976  
     axis 0 0 0   XYZ
    dof ry rz
    limits (-20.0 10.0)
           (0.0 20.0)
  end
  begin
     id 18 
     name lhumerus
     direction 1 -4.48954e-011 -2.92837e-028   
     length 5.32462   
     axis 180 -30 -90   XYZ
    dof rx ry rz
    limits (-60.0 90.0)
           (-90.0 90.0)
           (-90.0 90.0)
  end
  begin
     id 19
     name lradius
     direction 1 -4.48958e-011 -6.39511e-027   
     length 3.48402   
     axis 180 -30 -90   XYZ
    dof rx
    limits (-10.0 170.0)
  end
  begin
     id 20
     name lwrist
     direction 1 -4.48975e-011 -1.1413e-026   
     length 1.74201   
     axis 6.88575e-015 90 90   XYZ
    dof ry
    limits (-180.0 0.0)
 end
  begin
     id 21 
     name lhand
     direction 1 -4.48899e-011 -2.28192e-026   
     length 0.572476   
     axis 1.45643e-014 90 90   XYZ
    dof rx rz
    limits (-90.0 90.0)
           (-45.0 45.0)
  end
  begin
     id 22 
     name lfingers
     direction 1 -4.49155e-011 -4.5684e-026   
     length 0.461545   
     axis 2.91283e-014 90 90   XYZ
    dof rx
    limits (0.0 90.0)
  end
  begin
     id 23
     name lthumb
     direction 0.707107 -6.34943e-011 0.707107   
     length 0.662688   
     axis -90 45 -2.25915e-014   XYZ
    dof rx rz
    limits (-45.0 45.0)
           (-45.0 45.0)
  end
  begin
     id 24 
     name rclavicle
     direction -0.964103 0.264019 -0.0282629   
     length 3.54491  
     axis 0 0 0   XYZ 
    dof ry rz
    limits (-10.0 20.0)
           (-20.0 0.0)
  end
  begin
     id 25 
     name rhumerus
     direction -1 -4.48964e-011 -2.45032e-027  
     length 5.33589   
     axis 180 30 90   XYZ
    dof rx ry rz
    limits (-90.0 60.0)
           (-90.0 90.0)
           (-90.0 90.0)
  end
  begin
     id 26 
     name rradius
     direction -1 -4.48987e-011 -1.55093e-027   
     length 3.64134   
     axis 180 30 90   XYZ
    dof rx
    limits (-10.0 170.0)
  end
  begin
     id 27 
     name rwrist
     direction -1 -4.4897e-011 -1.14128e-026   
     length 1.82067   
     axis 6.88575e-015 -90 -90   XYZ
    dof ry
    limits (-180.0 0.0)
  end
  begin
     id 28
     name rhand
     direction -1 -4.49021e-011 -2.28301e-026   
     length 0.734811   
     axis 1.45643e-014 -90 -90   XYZ
    dof rx rz
    limits (-90.0 90.0)
           (-45.0 45.0)
  end
  begin
     id 29
     name rfingers
     direction -1 -4.48862e-011 -4.56319e-026   
     length 0.592424   
     axis 2.91283e-014 -90 -90   XYZ
    dof rx
    limits (0.0 90.0)
  end
  begin
     id 30
     name rthumb
     direction -0.707107 -6.34978e-011 0.707107   
     length 0.850605   
     axis -90 -45 2.25915e-014   XYZ
    dof rx rz
    limits (-45.0 45.0)
           (-45.0 45.0)
  end
:hierarchy
  begin
    root lhipjoint rhipjoint lowerback
    lhipjoint lfemur
    lfemur ltibia
    ltibia lfoot
    lfoot ltoes
    rhipjoint rfemur
    rfemur rtibia
    rtibia rfoot
    rfoot rtoes
    lowerback upperback
    upperback thorax
    thorax lowerneck lclavicle rclavicle
    lowerneck upperneck
    upperneck head
    lclavicle lhumerus
    lhumerus lradius
    lradius lwrist
    lwrist lhand lthumb
    lhand lfingers
    rclavicle rhumerus
    rhumerus rradius
    rradius rwrist
    rwrist rhand rthumb
    rhand rfingers
  end

#!OML:ASF F:\VICON\USERDATA\INSTALL\rory3\rory3.ASF
:FULLY-SPECIFIED
:DEGREES
1
root 1.47385 17.7427 13.0088 -173.651 -4.65656 179.238
lowerback 0.518283 -2.06274 -3.4634
upperback -1.00391 -2.81169 2.92559
thorax -1.01062 -1.38622 4.99552
lowerneck -24.2665 -2.67317 -8.50667
upperneck 35.1032 0.96091 2.38768
head 16.8285 0.28586 2.95817
rclavicle -3.03644e-014 0
rhumerus -32.5248 -6.50653 -81.1718
rradius 32.2981
rwrist 20.7474
rhand -21.0562 1.82857
rfingers 7.12502
rthumb 5.32007 -28.0847
lclavicle -3.03644e-014 0
lhumerus -30.5029 5.12411 88.3301
lradius 33.6536
lwrist -5.66798
lhand -13.7956 26.5432
lfingers 7.12502
lthumb 12.3261 56.1598
rfemur -17.6499 3.59053 21.0368
rtibia 32.5574
rfoot -21.0224 -6.6402
rtoes 11.8172
lfemur -13.4126 0.489824 -24.3937
ltibia 23.8076
lfoot -13.1689 1.34735
ltoes -8.69446
2
root 1.4671 17.7427 13.0088 -173.635 -4.65468 179.394
lowerback 0.482387 -2.05978 -3.24603
upperback -1.0183 -2.80667 2.93494
thorax -1.01545 -1.38614 4.88092
lowerneck -24.1712 -2.67296 -8.5819
upperneck 35.1483 0.940682 2.54267
head 16.8283 0.295579 3.0388
rclavicle 5.96354e-015 7.95139e-016
rhumerus -32.5779 -6.56115 -81.1664
rradius 32.3331
rwrist 20.7918
rhand -21.005 1.89643
rfingers 7.12502
rthumb 5.36952 -28.0155
lclavicle 5.96354e-015 7.95139e-016
lhumerus -30.5154 5.04986 88.3144
lradius 33.4427
lwrist -5.95149
lhand -13.7748 27.2559
lfingers 7.12502
lthumb 12.3463 56.8713
rfemur -17.6318 3.62197 21.1765
rtibia 32.4686
rfoot -20.9652 -6.64355
rtoes 11.9941
lfemur -13.5004 0.487126 -24.2475
ltibia 23.9239
lfoot -13.2615 1.37695
ltoes -9.98404
3
root 1.46286 17.7415 13.0097 -173.634 -4.63214 179.423
lowerback 0.443427 -2.06158 -3.22955
upperback -1.00451 -2.80842 2.94121
thorax -0.979663 -1.38839 4.87604
lowerneck -24.044 -2.65133 -8.62267
upperneck 35.1607 0.974668 2.59328
head 16.8011 0.317255 3.07593
rclavicle -1.92324e-014 -9.54166e-015
rhumerus -32.572 -6.55237 -81.1636
rradius 32.3682
rwrist 20.7608
rhand -20.9636 1.91354
rfingers 7.12502
rthumb 5.40952 -27.9974
lclavicle -1.92324e-014 -9.54166e-015
lhumerus -30.5407 5.04669 88.3069
lradius 33.3804
lwrist -6.33232
lhand -13.2474 28.3341
lfingers 7.12502
lthumb 12.8547 57.9182
rfemur -17.6262 3.67277 21.1914
rtibia 32.4597
rfoot -21.0026 -6.61238
rtoes 12.262
lfemur -13.5276 0.588466 -24.2352
ltibia 23.9498
lfoot -13.3303 1.32716
ltoes -11.267
4
root 1.45992 17.7417 13.0127 -173.653 -4.65439 179.409
lowerback 0.465857 -2.07633 -3.26434
upperback -0.998719 -2.8284 2.93603
thorax -0.982754 -1.39789 4.89121
lowerneck -23.8541 -2.60616 -8.50343
upperneck 35.0965 1.0326 2.45334
head 16.7195 0.342736 3.00027
rclavicle 4.01545e-014 -2.70347e-014
rhumerus -32.5377 -6.5302 -81.1854
rradius 32.3488
rwrist 20.6901
rhand -20.9413 1.83332
rfingers 7.12502
rthumb 5.43101 -28.0771
lclavicle 4.01545e-014 -2.70347e-014
lhumerus -30.5699 5.07479 88.2422
lradius 33.2482
lwrist -6.59245
lhand -12.8514 28.4431
lfingers 7.12502
lthumb 13.2364 58.0028
rfemur -17.6004 3.67729 21.1744
rtibia 32.4467
rfoot -21.0247 -6.67217
rtoes 12.1972
lfemur -13.5298 0.653695 -24.2607
ltibia 23.9677
lfoot -13.3372 1.25779
ltoes -11.3662
5
root 1.45632 17.7428 13.013 -173.662 -4.69934 179.404
lowerback 0.491702 -2.08793 -3.27409
upperback -0.99797 -2.8443 2.93412
thorax -0.994392 -1.4054 4.89591
lowerneck -23.7762 -2.59423 -8.445
upperneck 35.076 1.05406 2.37185
head 16.6898 0.350276 2.95684
rclavicle -2.03754e-014 -4.77083e-015
rhumerus -32.5347 -6.3712 -81.2296
rradius 32.3598
rwrist 20.4698
rhand -21.0483 1.70675
rfingers 7.12502
rthumb 5.32772 -28.2063
lclavicle -2.03754e-014 -4.77083e-015
lhumerus -30.5932 5.0871 88.1892
lradius 32.9504
lwrist -6.46541
lhand -12.8706 27.7913
lfingers 7.12502
lthumb 13.2179 57.3523
rfemur -17.5879 3.65706 21.1603
rtibia 32.4425
rfoot -20.9979 -6.7167
rtoes 12.0038
lfemur -13.524 0.633023 -24.2739
ltibia 23.9857
lfoot -13.2966 1.23444
ltoes -11.2421
6
root 1.45097 17.7428 13.0126 -173.67 -4.6453 179.378
lowerback 0.518319 -2.06533 -3.29798
upperback -0.990337 -2.81475 2.93589
thorax -1.00349 -1.39019 4.91214
lowerneck -23.795 -2.58539 -8.42107
upperneck 35.115 1.09755 2.30266
head 16.7126 0.362188 2.93329
rclavicle -1.15295e-014 2.78299e-014
rhumerus -32.5348 -6.27265 -81.2239
rradius 32.3675
rwrist 20.4345
rhand -21.0961 1.52989
rfingers 7.12502
rthumb 5.28157 -28.3843
lclavicle -1.15295e-014 2.78299e-014
lhumerus -30.6092 5.17587 88.1681
lradius 32.6824
lwrist -6.26733
lhand -12.9163 27.2847
lfingers 7.12502
lthumb 13.1739 56.8485
rfemur -17.5626 3.68119 21.0991
rtibia 32.4036
rfoot -20.9799 -6.6406
rtoes 12.1531
lfemur -13.5348 0.56779 -24.327
ltibia 24.0695
lfoot -13.3452 1.38492
ltoes -11.2916
7
root 1.44505 17.7462 13.0199 -173.451 -4.21604 179.505
lowerback 0.386088 -1.92831 -3.18858
upperback -1.04285 -2.63058 2.9606
thorax -1.00711 -1.29912 4.87118
lowerneck -23.8507 -2.59011 -8.43066
upperneck 35.1343 1.10085 2.29942
head 16.7359 0.359778 2.9354
rclavicle 3.18055e-014 -5.88403e-014
rhumerus -32.5392 -6.24583 -81.2196
rradius 32.4085
rwrist 20.5294
rhand -21.1416 1.56436
rfingers 7.12502
rthumb 5.23765 -28.3509
lclavicle 3.18055e-014 -5.88403e-014
lhumerus -30.5866 5.32865 88.1142
lradius 32.3916
lwrist -6.43915
lhand -12.8635 27.2207
lfingers 7.12502
lthumb 13.2248 56.7812
rfemur -17.8828 3.79592 21.1514
rtibia 32.3344
rfoot -20.7075 -6.42738
rtoes 11.957
lfemur -13.8517 0.627049 -24.2567
ltibia 24.1803
lfoot -13.3754 1.72633
ltoes -11.0057
8
root 1.43876 17.7482 13.0286 -173.058 -3.59875 179.879
lowerback 0.0256261 -1.70259 -2.82243
upperback -1.12655 -2.32739 3.02227
thorax -0.935141 -1.15412 4.7156
lowerneck -23.8345 -2.59637 -8.43703
upperneck 35.1271 1.06981 2.35304
head 16.7295 0.354394 2.95353
rclavicle -4.32357e-015 2.8625e-014
rhumerus -32.5669 -6.34681 -81.2073
rradius 32.5248
rwrist 20.6095
rhand -21.1602 1.62859
rfingers 7.12502
rthumb 5.21969 -28.2871
lclavicle -4.32357e-015 2.8625e-014
lhumerus -30.5747 5.38231 88.0631
lradius 32.123
lwrist -6.90998
lhand -12.8214 27.2633
lfingers 7.12502
lthumb 13.2653 56.8211
rfemur -18.4384 4.06867 21.4366
rtibia 32.2564
rfoot -20.3682 -6.15
rtoes 11.8275
lfemur -14.3866 0.848856 -23.9426
ltibia 24.2749
lfoot -13.3514 2.16297
ltoes -11.0717
9
root 1.43342 17.7465 13.0241 -173.131 -3.57121 179.984
lowerback 0.0240111 -1.68202 -2.68609
upperback -1.07649 -2.30036 3.03569
thorax -0.890082 -1.1439 4.65102
lowerneck -23.784 -2.61597 -8.49529
upperneck 35.1345 1.06029 2.37334
head 16.7223 0.347834 2.97095
rclavicle -7.50412e-015 -1.27222e-014
rhumerus -32.6031 -6.30083 -81.1903
rradius 32.6556
rwrist 20.5536
rhand -21.1379 1.56018
rfingers 7.12502
rthumb 5.24118 -28.355
lclavicle -7.50412e-015 -1.27222e-014
lhumerus -30.6123 5.37731 88.0518
lradius 31.8833
lwrist -7.16776
lhand -12.9047 27.1962
lfingers 7.12502
lthumb 13.1851 56.7593
rfemur -18.3162 4.05544 21.5391
rtibia 32.192
rfoot -20.318 -6.11758
rtoes 12.0633
lfemur -14.3312 0.791154 -23.8445
ltibia 24.3461
lfoot -13.4192 2.29722
ltoes -11.3293
10
root 1.42972 17.7439 13.0116 -173.612 -4.09487 179.844
lowerback 0.370254 -1.85856 -2.79349
upperback -0.910482 -2.53771 3.01023
thorax -0.886304 -1.26233 4.69462
lowerneck -23.8181 -2.64425 -8.54682
upperneck 35.1833 1.05743 2.36304
head 16.7571 0.338037 2.97758
rclavicle -2.06736e-014 3.57812e-014
rhumerus -32.493 -6.29284 -81.1697
rradius 32.5571
rwrist 20.5452
rhand -21.1162 1.3589
rfingers 7.12502
rthumb 5.26211 -28.5558
lclavicle -2.06736e-014 3.57812e-014
lhumerus -30.6437 5.42447 88.0398
lradius 31.5992
lwrist -7.33458
lhand -13.0044 27.1262
lfingers 7.12502
lthumb 13.089 56.6954
rfemur -17.6098 3.83059 21.4757
rtibia 32.1517
rfoot -20.6273 -6.33824
rtoes 12.2216
lfemur -13.7525 0.627389 -23.9384
ltibia 24.3705
lfoot -13.5383 1.95226
ltoes -11.1243
11
root 1.42469 17.7427 13.0046 -173.848 -4.31535 179.814
lowerback 0.519949 -1.93193 -2.79999
upperback -0.817873 -2.63705 3.00367
thorax -0.86489 -1.3133 4.69538
lowerneck -23.8796 -2.67517 -8.58213
upperneck 35.2462 1.04134 2.36476
head 16.8064 0.326017 2.98494
rclavicle 1.79403e-014 -1.27222e-014
rhumerus -32.3974 -6.3572 -81.1258
rradius 32.4542
rwrist 20.6143
rhand -21.1118 1.38784
rfingers 7.12502
rthumb 5.26644 -28.5267
lclavicle 1.79403e-014 -1.27222e-014
lhumerus -30.6612 5.64632 87.981
lradius 31.3143
lwrist -7.58598
lhand -12.9685 27.0358
lfingers 7.12502
lthumb 13.1236 56.6029
rfemur -17.2777 3.71377 21.4719
rtibia 32.1527
rfoot -20.7504 -6.3914
rtoes 12.2309
lfemur -13.4342 0.605318 -23.9608
ltibia 24.3242
lfoot -13.562 1.7314
ltoes -11.947
12
root 1.42071 17.7423 13.0039 -173.936 -4.22153 179.762
lowerback 0.582133 -1.89755 -2.89972
upperback -0.763889 -2.59264 3.01338
thorax -0.844035 -1.29132 4.76293
lowerneck -23.8491 -2.69884 -8.62966
upperneck 35.2247 1.03209 2.34058
head 16.7899 0.312549 2.979
rclavicle 7.60351e-015 -6.20208e-014
rhumerus -32.3099 -6.43212 -81.0388
rradius 32.3874
rwrist 20.68
rhand -21.1122 1.72551
rfingers 7.12502
rthumb 5.26604 -28.1891
lclavicle 7.60351e-015 -6.20208e-014
lhumerus -30.6748 5.80633 87.977
lradius 31.0647
lwrist -7.68714
lhand -12.9079 27.1137
lfingers 7.12502
lthumb 13.182 56.677
rfemur -17.1856 3.74231 21.4107
rtibia 32.1551
rfoot -20.7171 -6.38501
rtoes 11.9342
lfemur -13.3037 0.555933 -24.0307
ltibia 24.2957
lfoot -13.5663 1.80844
ltoes -12.8347
13
root 1.41748 17.7409 13.0055 -173.986 -4.22427 179.758
lowerback 0.682314 -1.8755 -2.90321
upperback -0.762716 -2.56359 2.98306
thorax -0.903236 -1.27484 4.73717
lowerneck -23.8368 -2.71208 -8.53986
upperneck 35.2993 0.998838 2.31912
head 16.8279 0.311216 2.95144
rclavicle -6.41081e-015 -3.73715e-014
rhumerus -32.3148 -6.5453 -81.0128
rradius 32.3379
rwrist 20.7132
rhand -21.0759 1.78521
rfingers 7.12502
rthumb 5.30102 -28.1285
lclavicle -6.41081e-015 -3.73715e-014
lhumerus -30.7268 5.79091 87.9386
lradius 30.7671
lwrist -7.56427
lhand -13.098 27.0183
lfingers 7.12502
lthumb 12.9988 56.5934
rfemur -17.1454 3.77293 21.3974
rtibia 32.1552
rfoot -20.708 -6.42043
rtoes 11.7117
lfemur -13.2634 0.485768 -24.0379
ltibia 24.3203
lfoot -13.5761 1.87816
ltoes -11.6238
14
root 1.4136 17.7423 13.0072 -173.957 -4.14872 179.846
lowerback 0.697935 -1.83916 -2.81063
upperback -0.782075 -2.51399 2.95532
thorax -0.942101 -1.24942 4.65666
lowerneck -23.8813 -2.7135 -8.43237
upperneck 35.4047 0.951839 2.36864
head 16.895 0.315626 2.95167
rclavicle 2.77802e-014 -2.78299e-014
rhumerus -32.334 -6.6745 -81.0457
rradius 32.3221
rwrist 20.7719
rhand -21.0191 1.44637
rfingers 7.12502
rthumb 5.35593 -28.4659
lclavicle 2.77802e-014 -2.78299e-014
lhumerus -30.8354 5.7688 87.8456
lradius 30.5602
lwrist -7.16672
lhand -13.2193 26.7705
lfingers 7.12502
lthumb 12.8818 56.3529
rfemur -17.196 3.77849 21.4728
rtibia 32.1483
rfoot -20.627 -6.38986
rtoes 11.5284
lfemur -13.3406 0.536687 -23.9565
ltibia 24.3787
lfoot -13.6166 1.901
ltoes -10.2983
